<svg width="46" height="44" viewBox="0 0 46 44" fill="none" xmlns="http://www.w3.org/2000/svg">
<path d="M5.30469 16.9765C7.53423 8.36171 15.3588 2 24.6697 2C35.7162 2 44.6697 10.9534 44.6697 22C44.6697 33.0466 35.7162 42 24.6697 42C17.5436 42 11.2901 38.2747 7.74824 32.6656" stroke="white" stroke-width="2.5" stroke-miterlimit="10" stroke-linecap="round"/>
<path d="M8.40578 14.5181C9.16752 14.63 9.52232 15.5247 9.04434 16.1282L5.46843 20.6439C4.99061 21.2473 4.03881 21.1073 3.75496 20.3918L1.63098 15.0386C1.34708 14.323 1.94426 13.5685 2.70589 13.6804L8.40578 14.5181Z" fill="white"/>
<path d="M24.6703 35.8729C32.3324 35.8729 38.5438 29.6616 38.5438 21.9994C38.5438 14.3373 32.3324 8.12598 24.6703 8.12598C17.0082 8.12598 10.7969 14.3373 10.7969 21.9994C10.7969 29.6616 17.0082 35.8729 24.6703 35.8729Z" stroke="white" stroke-width="2.5" stroke-miterlimit="10"/>
<path d="M24.6719 12.6673V21.9993L29.5731 25.2284" stroke="white" stroke-width="2.5" stroke-miterlimit="10" stroke-linecap="round"/>
</svg>
